PathFileType	4	(X/Y/Z)	/Users/itak/Documents/Research/Walk-IL/dataset/trc/00184_00008.trc
DataRate	CameraRate	NumFrames	NumMarkers	Units	OrigDataRate	OrigDataStartFrame	OrigNumFrames
100.000000	100.000000	4	53	mm	100.000000	197	789
Frame#	Time	RPSI			LPSI			L3			STRN			T10			C7			CLAV			RBAK			LBAK			LSHO			LUPA			LAEL			LAOL			LWTS			LWPS			LFRA			LIFD			LHPS			LHTS			RSHO			RUPA			RAEL			RAOL			RWTS			RWPS			RFRA			RIFD			RHTS			RHPS			RBHD			LFHD			RFHD			LBHD			LHIP			RHIP			RASI			LASI			LKNE			LTHI			LANK			LTIP			LTOE			LMT1			LMT5			LHEE			RKNE			RTHI			RANK			RTIP			RTOE			RMT1			RMT5			RHEE			
		X1	Y1	Z1	X2	Y2	Z2	X3	Y3	Z3	X4	Y4	Z4	X5	Y5	Z5	X6	Y6	Z6	X7	Y7	Z7	X8	Y8	Z8	X9	Y9	Z9	X10	Y10	Z10	X11	Y11	Z11	X12	Y12	Z12	X13	Y13	Z13	X14	Y14	Z14	X15	Y15	Z15	X16	Y16	Z16	X17	Y17	Z17	X18	Y18	Z18	X19	Y19	Z19	X20	Y20	Z20	X21	Y21	Z21	X22	Y22	Z22	X23	Y23	Z23	X24	Y24	Z24	X25	Y25	Z25	X26	Y26	Z26	X27	Y27	Z27	X28	Y28	Z28	X29	Y29	Z29	X30	Y30	Z30	X31	Y31	Z31	X32	Y32	Z32	X33	Y33	Z33	X34	Y34	Z34	X35	Y35	Z35	X36	Y36	Z36	X37	Y37	Z37	X38	Y38	Z38	X39	Y39	Z39	X40	Y40	Z40	X41	Y41	Z41	X42	Y42	Z42	X43	Y43	Z43	X44	Y44	Z44	X45	Y45	Z45	X46	Y46	Z46	X47	Y47	Z47	X48	Y48	Z48	X49	Y49	Z49	X50	Y50	Z50	X51	Y51	Z51	X52	Y52	Z52	X53	Y53	Z53	

198	1.97	847.9708862304688	1028.903564453125	1008.30712890625	752.3695678710938	1026.846923828125	926.9328002929688	795.8319702148438	1063.644409179688	966.6138305664062	967.6586303710938	1276.7548828125	769.9151000976562	761.6309204101562	1219.796752929688	987.9668579101562	794.5706176757812	1489.201171875	928.5718383789062	939.5535888671875	1389.553466796875	785.1893920898438	828.9002075195312	1315.867919921875	1052.685302734375	716.5419921875	1463.783569335938	863.8661499023438	713.6140747070312	1450.371459960938	754.4873657226562	637.8309326171875	1315.75341796875	732.8319091796875	633.327392578125	1098.59423828125	717.1015625	655.3995971679688	1085.072387695312	803.7058715820312	724.8143310546875	860.8150024414062	667.91943359375	637.5355834960938	846.5851440429688	697.0390014648438	629.5482788085938	988.3759765625	700.8084106445312	735.7705688476562	675.7125244140625	683.7335815429688	650.1358642578125	776.4640502929688	687.0888061523438	711.8358154296875	781.259765625	648.7825317382812	966.2745361328125	1471.887329101562	1009.160522460938	998.9522094726562	1408.0205078125	1073.778564453125	1024.407470703125	1123.5712890625	1142.336547851562	955.6087036132812	1110.736694335938	1069.908813476562	1142.876220703125	925.4752197265625	1003.332824707031	1118.006225585938	889.2510986328125	1080.501708984375	1062.287231445312	1051.544921875	1131.115112304688	1156.990478515625	750.7360229492188	936.8230590820312	1179.857543945312	840.128662109375	974.9669799804688	1147.73388671875	815.4743041992188	1044.401733398438	902.4445190429688	1657.742309570312	928.7576293945312	861.1757202148438	1697.200317382812	718.3743896484375	975.78662109375	1708.642333984375	776.922119140625	777.2799072265625	1653.594604492188	871.5446166992188	723.0452880859375	965.8643798828125	775.5211181640625	1044.3759765625	993.9467163085938	962.3975830078125	1048.176879882812	1021.511840820312	865.7333374023438	843.6864013671875	1003.919311523438	707.1199340820312	729.562255859375	473.0250854492188	844.6387329101562	727.6708374023438	616.1987915039062	804.6023559570312	550.7664794921875	124.1145858764648	1131.959350585938	635.7240600585938	297.8916625976562	974.7027587890625	693.5094604492188	39.64780426025391	1031.801879882812	701.3785400390625	43.80813217163086	1089.665283203125	582.6991577148438	51.78316879272461	1050.422607421875	573.4873657226562	169.7767028808594	1201.726928710938	1140.048950195312	529.1708374023438	801.2056884765625	1120.138305664062	787.6621704101562	876.8560180664062	1177.907836914062	27.28267288208008	813.0747680664062	1154.070068359375	408.7599182128906	763.582763671875	1241.203735351562	67.72402191162109	607.07470703125	1178.020751953125	59.33848190307617	630.8095092773438	1254.22412109375	28.94229507446289	725.5892944335938	1093.485961914062	32.08508682250977	827.2095947265625	
199	1.98	857.6859130859375	1030.828979492188	1000.987426757812	761.6442260742188	1028.226318359375	919.8516845703125	805.1636962890625	1065.099853515625	959.5585327148438	975.0783081054688	1279.001708984375	762.013427734375	771.2473754882812	1221.233642578125	981.7069091796875	803.1148071289062	1490.726806640625	922.6918334960938	946.7098999023438	1391.684448242188	777.6730346679688	839.182861328125	1317.345458984375	1046.084716796875	724.61083984375	1465.287719726562	858.8583984375	720.3975219726562	1452.196899414062	749.5029296875	643.5878295898438	1317.941162109375	729.3328857421875	636.5078735351562	1101.310546875	715.5077514648438	660.3851928710938	1088.224243164062	801.5230102539062	720.1121826171875	860.4740600585938	666.875732421875	633.41064453125	849.4613037109375	698.7131958007812	629.6292724609375	991.3818359375	700.5426025390625	725.5126953125	675.106689453125	685.4802856445312	643.2882080078125	778.8848266601562	689.5167846679688	704.0791625976562	780.9412231445312	649.3883666992188	975.6796875	1473.863037109375	1001.378356933594	1009.280151367188	1410.109985351562	1065.577514648438	1036.350708007812	1126.109252929688	1133.955322265625	966.3502807617188	1112.926879882812	1062.424194335938	1151.786743164062	925.990478515625	994.8596801757812	1128.127075195312	890.827392578125	1072.87060546875	1073.724243164062	1053.67822265625	1122.466064453125	1163.488159179688	750.2276611328125	930.25830078125	1187.686157226562	839.9826049804688	966.802001953125	1156.790771484375	816.4468383789062	1037.160034179688	911.0262451171875	1659.392822265625	921.7213134765625	867.308349609375	1699.018676757812	711.7568359375	982.587646484375	1710.487548828125	769.034912109375	785.1937255859375	1655.174682617188	865.73681640625	731.6043090820312	967.1505737304688	768.4546508789062	1053.621459960938	996.3590087890625	953.9976806640625	1057.10986328125	1024.116943359375	857.3390502929688	851.84423828125	1005.717651367188	699.98095703125	738.1909790039062	472.6574401855469	830.6619873046875	736.3673095703125	616.5499267578125	793.117431640625	557.720703125	132.0106811523438	1127.409912109375	643.0242919921875	301.0733947753906	964.90869140625	693.85791015625	39.10865783691406	1031.202026367188	703.9126586914062	44.67006301879883	1087.333129882812	585.148193359375	54.51081848144531	1049.119995117188	583.2435302734375	179.92236328125	1194.363037109375	1147.116577148438	529.731201171875	793.7444458007812	1128.933715820312	789.5374145507812	868.0856323242188	1178.48046875	27.18362236022949	812.9237670898438	1159.701049804688	408.3798522949219	757.583740234375	1241.528564453125	64.67572784423828	606.1229248046875	1178.453247070312	57.44204330444336	630.2417602539062	1255.117431640625	27.94804191589355	725.5037231445312	1094.2548828125	32.70304107666016	827.2256469726562	
200	1.99	867.226318359375	1032.53125	993.7626342773438	770.7135009765625	1029.560424804688	913.0643310546875	814.3707275390625	1066.44482421875	952.6985473632812	982.3436279296875	1281.186279296875	754.15625	780.7012939453125	1222.716674804688	975.4545288085938	811.5387573242188	1492.243774414062	916.7791137695312	953.7338256835938	1393.760131835938	770.1678466796875	849.27783203125	1318.808837890625	1039.438232421875	732.5712280273438	1466.814086914062	853.7858276367188	727.120361328125	1454.055786132812	744.4522094726562	649.22509765625	1320.250854492188	725.7200927734375	639.5728759765625	1104.1572265625	713.8914184570312	665.2650146484375	1091.4169921875	799.2848510742188	715.5809326171875	860.6671752929688	665.7974243164062	629.670654296875	852.6761474609375	700.349365234375	629.7704467773438	994.6016845703125	700.2210693359375	716.00927734375	675.2758178710938	687.2455444335938	636.9935913085938	781.7496948242188	691.914306640625	696.7252807617188	781.2474365234375	649.9946899414062	984.9061279296875	1475.830200195312	993.5645751953125	1019.414428710938	1412.200439453125	1057.350830078125	1048.24560546875	1128.617797851562	1125.55908203125	977.0205078125	1115.10400390625	1055.023803710938	1160.742431640625	926.6900024414062	986.2844848632812	1138.418212890625	892.556884765625	1065.1220703125	1085.20654296875	1055.8486328125	1113.76123046875	1170.154663085938	749.9599609375	923.5792236328125	1195.601440429688	840.0615844726562	958.4995727539062	1166.053466796875	817.6068115234375	1029.775756835938	919.4747314453125	1660.994873046875	914.6607055664062	873.3275146484375	1700.808349609375	705.1366577148438	989.2640380859375	1712.290161132812	761.1480102539062	793.0023193359375	1656.70751953125	859.8860473632812	739.9658203125	968.312255859375	761.6187744140625	1062.770751953125	998.5895385742188	945.7313842773438	1065.924072265625	1026.575805664062	849.0857543945312	859.7617797851562	1007.452941894531	693.087158203125	747.1954956054688	472.1553344726562	816.183837890625	745.2140502929688	616.7466430664062	781.3776245117188	565.3947143554688	140.3914794921875	1122.069580078125	650.924560546875	304.187255859375	954.4315185546875	694.6534423828125	38.28177261352539	1030.078979492188	706.78076171875	45.97159194946289	1084.430053710938	588.0665893554688	58.0213508605957	1047.378784179688	593.657958984375	190.2208557128906	1186.093017578125	1153.7919921875	530.0451049804688	786.745849609375	1137.590942382812	791.0742797851562	859.6577758789062	1178.893798828125	27.1242561340332	812.8271484375	1164.9599609375	407.8580932617188	751.9527587890625	1241.667602539062	62.08578872680664	605.3363037109375	1178.71826171875	55.87956237792969	629.8148193359375	1255.843872070312	27.27023696899414	725.5076293945312	1094.85693359375	33.13169860839844	827.2777709960938	
201	2	876.6431274414062	1034.036743164062	986.6626586914062	779.5682983398438	1030.831665039062	906.6347045898438	823.4591064453125	1067.673706054688	946.0662231445312	989.430419921875	1283.251220703125	746.3299560546875	789.9921264648438	1224.222534179688	969.263671875	819.8622436523438	1493.736938476562	910.8353271484375	960.6197509765625	1395.727294921875	762.6619262695312	859.194580078125	1320.251586914062	1032.769653320312	740.4173583984375	1468.34375	848.660888671875	733.7648315429688	1455.907958984375	739.3414916992188	654.7440795898438	1322.628295898438	722.0181884765625	642.5185546875	1107.076171875	712.226318359375	670.0496215820312	1094.567993164062	797.00146484375	711.2940063476562	861.3180541992188	664.6541137695312	626.3482666015625	856.1143798828125	701.8742065429688	629.98095703125	997.9544067382812	699.806640625	707.370361328125	676.098388671875	688.9761352539062	631.324951171875	784.9302368164062	694.2015991210938	689.8751220703125	782.0736694335938	650.5579833984375	993.9827880859375	1477.750122070312	985.7015380859375	1029.37451171875	1414.242553710938	1049.087768554688	1060.065063476562	1131.043090820312	1117.15478515625	987.6080322265625	1117.216430664062	1047.7197265625	1169.74609375	927.55322265625	977.6172485351562	1148.854736328125	894.3858642578125	1057.240844726562	1096.70361328125	1058.013793945312	1105.030151367188	1177.064575195312	749.9425659179688	916.73681640625	1203.640502929688	840.3675537109375	950.057861328125	1175.515869140625	818.919189453125	1022.222045898438	927.7753295898438	1662.533325195312	907.571533203125	879.2207641601562	1702.54736328125	698.5208740234375	995.8014526367188	1714.037475585938	753.2650146484375	800.689453125	1658.18994140625	854.018798828125	748.0595092773438	969.2994995117188	755.1025390625	1071.844116210938	1000.625244140625	937.53857421875	1074.587280273438	1028.827758789062	840.9086303710938	867.3598022460938	1009.083190917969	686.43603515625	756.6257934570312	471.5327758789062	801.2655029296875	754.2207641601562	616.7997436523438	769.4551391601562	573.7409057617188	149.2878875732422	1115.88330078125	659.4573364257812	307.2442016601562	943.2872314453125	696.0025024414062	37.16429901123047	1028.243408203125	710.03271484375	47.85691452026367	1080.79345703125	591.5377197265625	62.47230529785156	1045.042236328125	604.6268310546875	200.6465301513672	1176.9765625	1160.0146484375	530.1193237304688	780.1807250976562	1146.05908203125	792.2365112304688	851.5582275390625	1179.16845703125	27.10847091674805	812.7539672851562	1169.803344726562	407.2037353515625	746.6851196289062	1241.65380859375	59.88192367553711	604.6338500976562	1178.839599609375	54.58612442016602	629.4690551757812	1256.391479492188	26.82975959777832	725.5382690429688	1095.293090820312	33.41214370727539	827.3374633789062	
